<svg fill="none" xmlns="http://www.w3.org/2000/svg" viewBox="0 0 342 181"><path opacity=".45" d="M168.878 180.854c92.994 0 168.381-6.722 168.381-15.014 0-8.292-75.387-15.015-168.381-15.015S.498 157.548.498 165.84c0 8.292 75.386 15.014 168.38 15.014z" fill="#525369"/><path d="M71.58 123.429H15.174v40.849h56.404v-40.849z" fill="#2D3050"/><path opacity=".45" d="M77.54 89.33H30.657v33.947H77.54V89.33z" fill="#525369"/><path d="M302.836 94.66h-8.604v-1.894h8.604a2.286 2.286 0 002.293-2.281V84.36a2.29 2.29 0 00-2.293-2.29h-8.604v-1.894h8.604a4.19 4.19 0 014.188 4.184v6.153a4.184 4.184 0 01-4.188 4.147z" fill="#17BEBB"/><path d="M302.836 94.66h-8.604v-1.894h8.604a2.286 2.286 0 002.293-2.281V84.36a2.29 2.29 0 00-2.293-2.29h-8.604v-1.894h8.604a4.19 4.19 0 014.188 4.184v6.153a4.184 4.184 0 01-4.188 4.147z" fill="#ED7D3A"/><path d="M305.65 139.664h-30.084v3.863h30.084v-3.863z" fill="#404261"/><path d="M67.705 139.134l-3.677 25.153h8.983l6.13-25.153H67.705z" fill="#272A48"/><path d="M75.426 140.213l-3.676 25.153h8.982l6.13-25.153H75.426zM223.417 139.267l3.676 25.153h-8.982l-6.131-25.153h11.437z" fill="#17BEBB"/><path d="M49.844 117.91l2.435 12.884a18.03 18.03 0 006.217 10.541 18.058 18.058 0 0011.52 4.151H233.64a24.044 24.044 0 0014.705-5.024 24.015 24.015 0 008.556-12.962l2.511-9.619-209.568.029z" fill="#17BEBB"/><path d="M57.595 107.544l-6.045 4.449a5.065 5.065 0 00-1.808 5.629 5.062 5.062 0 001.817 2.52 5.077 5.077 0 002.947.987l198.312 2.139a6.637 6.637 0 006.18-3.985 6.622 6.622 0 00-1.301-7.233l-4.292-4.506H57.595z" fill="#87E7DB"/><path d="M57.594 107.544S37.005 41.845 83.12 37.765c37.729-3.342 123.393-1.212 153.192-.331 9.882.293 18.864 6.02 22.74 14.89 4.661 10.67 6.329 28.117-5.591 55.22H57.594z" fill="#3CD3C1"/><path d="M103.965 148.809s.578 3.427-1.895 5.084c-2.473 1.656-1.715 4.553.947 3.919 2.663-.634 7.002-6.958 7.002-6.958l-2.255-3.626-3.799 1.581zM147.095 22.59s-40.07-4.241-38.554 16.926c1.516 21.168 23.972 66.267 23.972 66.267h49.194s44.182-58.087 26.018-76.49c-18.163-18.404-29.145-1.733-60.63-6.703z" fill="#EF2D56"/><path d="M147.55 24.36s-5.174 14.087 3.676 16.936c8.85 2.85 13.748-8.33 11.294-14.2-2.454-5.87-14.97-2.736-14.97-2.736z" fill="#FFC9C9"/><path opacity=".08" d="M132.825 50.592s-4.879 40.11 20.068 44.068c24.948 3.957 36.47.255 36.47.255l-7.656 10.906-49.895-1.43s-15.104-32.99-15.89-36.92c-.786-3.928 16.903-16.879 16.903-16.879z" fill="#000"/><path opacity=".08" d="M147.55 24.36s-5.174 14.087 3.676 16.936c8.85 2.85 13.748-8.33 11.294-14.2-2.454-5.87-14.97-2.736-14.97-2.736z" fill="#FFC9C9"/><path d="M148.498 22.902c.279 1.785.459 3.583.54 5.387.076 2.48.871 6.153 4.785 6.882 6.026 1.117 7.58-8.416 7.58-8.416s3.79-8.936-2.729-10.157c-5.827-1.108-11.38-1.894-10.176 6.304z" fill="#FFC9C9"/><path d="M161.08 27.143s.341-2.896 2.843-2.773c2.501.123 1.563 5.528-2.843 2.773zM149.948 25.525s.89-2.774-1.46-3.711c-2.349-.938-3.685 4.402 1.46 3.71z" fill="#FFC9C9"/><path d="M134.086 104.401l47.621 1.42s33.57 3.114 33.978 15.147c.322 9.514-40.222 3.976-57.182 1.249a71.903 71.903 0 00-25.459.35c-13.265 2.632-26.758-1.391-23.148 25.627l-7.087 1.732s-18.675-45.989 31.277-45.525z" fill="#06092B"/><path d="M126.94 28.058a17.465 17.465 0 019.73 17.887 17.473 17.473 0 01-2.336 6.804c-7.1 12.034-22.36 26.767-54.33 25.8C33.846 77.139 65.73 12.055 65.73 12.055l6.92 2.426s-15.08 48.2 11.426 39.189c22.209-7.543 23.913-34.537 42.865-25.611z" fill="#FFC9C9"/><path d="M72.65 14.48s7.08-2.132 7.147-4.51c.066-2.379.132-5.913-2.519-5.335-2.65.578-1.306 4.994-3.124 4.51-1.817-.483-1.088-5.372-2.925-7.817-1.836-2.444-6.797-2.842-5.5 10.726l6.92 2.426z" fill="#FFC9C9"/><path d="M158.74 117.91s-7.959 7.337-5.306 10.413c2.653 3.077 7.646-5.68 7.646-5.68l-2.34-4.733z" fill="#EF2D56"/><path d="M274.316 105.821l-3.79 58.466h3.79l8.054-58.466h-8.054zM305.583 105.821l3.79 58.466h-3.79l-8.054-58.466h8.054z" fill="#2D3050"/><path d="M309.374 98.342h-38.848v9.202h38.848v-9.202z" fill="#272A4D"/><path d="M299.122 75.84H282.37v22.502h16.752V75.84z" fill="#ED7D3A"/><path opacity=".08" d="M290.954 92.33c2.768 0 5.012-2.508 5.012-5.603 0-3.096-2.244-5.605-5.012-5.605-2.768 0-5.013 2.51-5.013 5.605 0 3.095 2.245 5.604 5.013 5.604z" fill="#000"/><path d="M284.938 75.84s-2.369-7.886 3.941-8.68c6.31-.796 15.009.794 11.768-8.672-3.24-9.467-7.504-7.422-2.767-18.148 4.738-10.726 17.216 8.36 21.793-1.732 4.576-10.092 10.896-6.627 17.216-1.657s7.58 20.429-4.899 22.796c-12.478 2.366-14.999 5.064-17.528 12.003-2.53 6.94-15.312 4.09-15.312 4.09h-14.212z" fill="#F4F1F1" fill-opacity=".53"/><path d="M148.498 19.873s4.918.947 8.148-2.688c0 0 3.374 5.746 5.752 5.907 0 0 1.677-3.938 1.601-6.419-.076-2.48 2.795-2.764 1.734-5.803-1.061-3.038-3.629-3.786-6.017-2.404 0 0 1.242-2.282-1.051-2.755-2.293-.473-8.812 2.916-8.812 2.916s-3.591 2.49-1.355 11.246z" fill="#2C2F54"/><path d="M183.719 90.708l-4.743-.357-.741 9.837 4.743.356.741-9.836z" fill="#EF2D56"/><path d="M195.68 25.99a17.46 17.46 0 00-11.339 8.323 17.497 17.497 0 00-1.535 13.99c4.146 13.35 15.601 31.21 46.935 37.635 45.223 9.276 29.195-61.38 29.195-61.38l-7.298.759s3.588 50.378-20.136 35.502c-19.87-12.488-15.317-39.103-35.822-34.83z" fill="#FFC9C9"/><path d="M251.638 25.288s-6.399-3.705-5.917-6.035c.483-2.331 1.231-5.78 3.683-4.615 2.452 1.166.123 5.164 1.997 5.117 1.875-.048 2.301-4.984 4.648-6.945 2.348-1.962 7.261-1.175 2.84 11.72l-7.251.758z" fill="#FFC9C9"/><path opacity=".46" d="M251.018 30.407l-.356-4.743 9.837-.74.356 4.743-9.837.74z" fill="#3CD3C1"/><path d="M148.644 31.278c.005-1.339-.062-2.558-.147-4.191.702 4.277 1.852 6.082 5.211 8.046a23.444 23.444 0 01-1.81-.232l-.031-.004c-1.778-.278-3.229-1.819-3.223-3.619z" fill="#000" fill-opacity=".04"/></svg>
