<?xml version="1.0" encoding="UTF-8" standalone="no"?>
<!-- Created with Inkscape (http://www.inkscape.org/) -->

<svg
   xmlns:dc="http://purl.org/dc/elements/1.1/"
   xmlns:cc="http://creativecommons.org/ns#"
   xmlns:rdf="http://www.w3.org/1999/02/22-rdf-syntax-ns#"
   xmlns:svg="http://www.w3.org/2000/svg"
   xmlns="http://www.w3.org/2000/svg"
   xmlns:sodipodi="http://sodipodi.sourceforge.net/DTD/sodipodi-0.dtd"
   xmlns:inkscape="http://www.inkscape.org/namespaces/inkscape"
   version="1.1"
   id="svg933"
   width="385"
   height="78"
   viewBox="0 0 385 78"
   sodipodi:docname="logo-branco.svg"
   inkscape:version="0.92.3 (2405546, 2018-03-11)">
  <metadata
     id="metadata939">
    <rdf:RDF>
      <cc:Work
         rdf:about="">
        <dc:format>image/svg+xml</dc:format>
        <dc:type
           rdf:resource="http://purl.org/dc/dcmitype/StillImage" />
        <dc:title></dc:title>
      </cc:Work>
    </rdf:RDF>
  </metadata>
  <defs
     id="defs937" />
  <sodipodi:namedview
     pagecolor="#ffffff"
     bordercolor="#666666"
     borderopacity="1"
     objecttolerance="10"
     gridtolerance="10"
     guidetolerance="10"
     inkscape:pageopacity="0"
     inkscape:pageshadow="2"
     inkscape:window-width="1366"
     inkscape:window-height="711"
     id="namedview935"
     showgrid="false"
     showguides="true"
     inkscape:guide-bbox="true"
     inkscape:zoom="1.7383042"
     inkscape:cx="194.88411"
     inkscape:cy="29.382369"
     inkscape:window-x="0"
     inkscape:window-y="0"
     inkscape:window-maximized="1"
     inkscape:current-layer="svg933" />
  <g
     id="g863">
    <g
       id="g850">
      <g
         id="g955"
         transform="matrix(0.38424656,0,0,0.38424656,-27.252501,-3.9619352)">
        <path
           sodipodi:nodetypes="cccszccczzzzz"
           inkscape:connector-curvature="0"
           id="path945"
           d="M 116.18699,93.07593 H 99.9432 v 11.75492 c 7.22406,2.77536 7.91227,9.55803 7.91227,12.00704 0,4.18196 2.16581,34.35706 37.51367,34.35706 35.34786,0 45.23347,-33.37109 46.16019,-36.82967 V 102.89855 C 164.38886,86.57124 139.52484,86.74979 116.18699,93.07593 Z m 29.18215,2.31825 c 23.49969,0 34.04189,13.52768 34.42135,21.96289 0.37946,8.4352 -10.02957,29.44176 -34.42135,29.44176 -24.39178,0 -32.26383,-19.70011 -31.01723,-31.96094 1.24661,-12.26083 7.51754,-19.44371 31.01723,-19.44371 z"
           style="color:#000000;font-style:normal;font-variant:normal;font-weight:normal;font-stretch:normal;font-size:medium;line-height:normal;font-family:sans-serif;font-variant-ligatures:normal;font-variant-position:normal;font-variant-caps:normal;font-variant-numeric:normal;font-variant-alternates:normal;font-feature-settings:normal;text-indent:0;text-align:start;text-decoration:none;text-decoration-line:none;text-decoration-style:solid;text-decoration-color:#000000;letter-spacing:normal;word-spacing:normal;text-transform:none;writing-mode:lr-tb;direction:ltr;text-orientation:mixed;dominant-baseline:auto;baseline-shift:baseline;text-anchor:start;white-space:normal;shape-padding:0;clip-rule:nonzero;display:inline;overflow:visible;visibility:visible;opacity:1;isolation:auto;mix-blend-mode:normal;color-interpolation:sRGB;color-interpolation-filters:linearRGB;solid-color:#000000;solid-opacity:1;vector-effect:none;fill:#feee37;fill-opacity:1;fill-rule:nonzero;stroke:none;stroke-width:7.01480293;stroke-linecap:butt;stroke-linejoin:miter;stroke-miterlimit:4;stroke-dasharray:none;stroke-dashoffset:0;stroke-opacity:1;color-rendering:auto;image-rendering:auto;shape-rendering:auto;text-rendering:auto;enable-background:accumulate" />
        <path
           style="color:#000000;font-style:normal;font-variant:normal;font-weight:normal;font-stretch:normal;font-size:medium;line-height:normal;font-family:sans-serif;font-variant-ligatures:normal;font-variant-position:normal;font-variant-caps:normal;font-variant-numeric:normal;font-variant-alternates:normal;font-feature-settings:normal;text-indent:0;text-align:start;text-decoration:none;text-decoration-line:none;text-decoration-style:solid;text-decoration-color:#000000;letter-spacing:normal;word-spacing:normal;text-transform:none;writing-mode:lr-tb;direction:ltr;text-orientation:mixed;dominant-baseline:auto;baseline-shift:baseline;text-anchor:start;white-space:normal;shape-padding:0;clip-rule:nonzero;display:inline;overflow:visible;visibility:visible;opacity:1;isolation:auto;mix-blend-mode:normal;color-interpolation:sRGB;color-interpolation-filters:linearRGB;solid-color:#000000;solid-opacity:1;vector-effect:none;fill:#0272eb;fill-opacity:1;fill-rule:nonzero;stroke:none;stroke-width:7.01480293;stroke-linecap:butt;stroke-linejoin:miter;stroke-miterlimit:4;stroke-dasharray:none;stroke-dashoffset:0;stroke-opacity:1;color-rendering:auto;image-rendering:auto;shape-rendering:auto;text-rendering:auto;enable-background:accumulate"
           d="m 266.87167,93.07593 h 16.24379 v 11.75492 c -7.22406,2.77536 -7.91227,9.55803 -7.91227,12.00704 0,4.18196 -2.16581,34.35706 -37.51367,34.35706 -35.34786,0 -45.23347,-33.37109 -46.16019,-36.82967 v -11.46673 c 27.14047,-16.32731 52.00449,-16.14876 75.34234,-9.82262 z m -29.18215,2.31825 c -23.49969,0 -34.04189,13.52768 -34.42135,21.96289 -0.37946,8.4352 10.02957,29.44176 34.42135,29.44176 24.39178,0 32.26383,-19.70011 31.01723,-31.96094 -1.24661,-12.26083 -7.51754,-19.44371 -31.01723,-19.44371 z"
           id="path951"
           inkscape:connector-curvature="0"
           sodipodi:nodetypes="cccszccczzzzz" />
      </g>
      <g
         id="g994"
         style="fill:#ffffff"
         transform="matrix(0.38424656,0,0,0.38424656,-27.208209,-34.70166)">
        <path
           id="rect957"
           d="m 150.58789,243.54102 c -0.36779,-0.001 -0.73962,0.005 -1.11328,0.0215 -6.15573,1.81921 -8.52964,13.14682 -8.28125,24.40234 -0.24839,11.25552 2.12552,22.58314 8.28125,24.40235 0.37366,0.0165 0.74549,0.0225 1.11328,0.0215 11.40147,-0.0421 20.04552,-8.35722 29.82617,-13.26172 -0.80491,-4.06857 -1.06819,-7.72931 -1.02539,-11.16211 -0.0428,-3.4328 0.22048,-7.09354 1.02539,-11.16211 -9.78065,-4.9045 -18.4247,-13.21964 -29.82617,-13.26171 z"
           style="fill:#ffffff;fill-opacity:1;stroke:none;stroke-width:7.01480293;stroke-miterlimit:4;stroke-dasharray:none;stroke-opacity:1"
           inkscape:connector-curvature="0" />
        <path
           inkscape:connector-curvature="0"
           style="fill:#ffffff;fill-opacity:1;stroke:none;stroke-width:7.01480293;stroke-miterlimit:4;stroke-dasharray:none;stroke-opacity:1"
           d="m 232.24023,243.54102 c 0.36779,-0.001 0.73962,0.005 1.11328,0.0215 6.15573,1.81921 8.52964,13.14682 8.28125,24.40234 0.24839,11.25552 -2.12552,22.58314 -8.28125,24.40235 -0.37366,0.0165 -0.74549,0.0225 -1.11328,0.0215 -11.40147,-0.0421 -20.04552,-8.35722 -29.82617,-13.26172 0.80491,-4.06857 1.06819,-7.72931 1.02539,-11.16211 0.0428,-3.4328 -0.22048,-7.09354 -1.02539,-11.16211 9.78065,-4.9045 18.4247,-13.21964 29.82617,-13.26171 z"
           id="path966" />
        <rect
           ry="5.8337026"
           rx="5.8337026"
           y="256.77759"
           x="182.36707"
           height="22.373156"
           width="17.898523"
           id="rect968"
           style="fill:#ffffff;fill-opacity:1;stroke:none;stroke-width:7.55732632;stroke-miterlimit:4;stroke-dasharray:none;stroke-opacity:1" />
      </g>
      <path
         style="color:#000000;font-style:normal;font-variant:normal;font-weight:normal;font-stretch:normal;font-size:medium;line-height:normal;font-family:sans-serif;font-variant-ligatures:normal;font-variant-position:normal;font-variant-caps:normal;font-variant-numeric:normal;font-variant-alternates:normal;font-feature-settings:normal;text-indent:0;text-align:start;text-decoration:none;text-decoration-line:none;text-decoration-style:solid;text-decoration-color:#000000;letter-spacing:normal;word-spacing:normal;text-transform:none;writing-mode:lr-tb;direction:ltr;text-orientation:mixed;dominant-baseline:auto;baseline-shift:baseline;text-anchor:start;white-space:normal;shape-padding:0;clip-rule:nonzero;display:inline;overflow:visible;visibility:visible;opacity:1;isolation:auto;mix-blend-mode:normal;color-interpolation:sRGB;color-interpolation-filters:linearRGB;solid-color:#000000;solid-opacity:1;vector-effect:none;fill:#ffffff;fill-opacity:1;fill-rule:nonzero;stroke:none;stroke-width:17.42724609;stroke-linecap:butt;stroke-linejoin:miter;stroke-miterlimit:4;stroke-dasharray:none;stroke-dashoffset:0;stroke-opacity:1;color-rendering:auto;image-rendering:auto;shape-rendering:auto;text-rendering:auto;enable-background:accumulate"
         d="M 28.836254,6.5716194 C 22.573073,7.439129 16.885694,9.600489 12.044979,11.829315 6.7919217,14.248001 14.203976,24.430062 18.938139,26.128624 49.755824,19.648456 57.48303,25.654257 77.818672,31.302443 85.775696,23.466772 81.721176,18.860958 81.721176,18.860958 77.241968,15.194124 76.113332,14.824867 68.95186,11.812281 64.927492,10.119368 65.157498,4.6267554 56.057029,2.2362815 46.956565,-0.15419281 42.747193,-0.07975042 37.231734,1.3979112 34.169223,2.2183967 30.898932,6.2859206 28.836254,6.5716194 Z"
         id="path996"
         inkscape:connector-curvature="0"
         sodipodi:nodetypes="sscccszss" />
    </g>
    <text
       id="text827"
       y="57.312"
       x="93.413284"
       style="font-style:normal;font-variant:normal;font-weight:normal;font-stretch:normal;font-size:55.04615784px;line-height:1.25;font-family:'Ubuntu Condensed';-inkscape-font-specification:'Ubuntu Condensed, Normal';font-variant-ligatures:normal;font-variant-caps:normal;font-variant-numeric:normal;font-feature-settings:normal;text-align:start;letter-spacing:0px;word-spacing:0px;writing-mode:lr-tb;text-anchor:start;fill:#ffffff;fill-opacity:1;stroke:#ffffff;stroke-width:2.06423092;stroke-miterlimit:4;stroke-dasharray:none;stroke-opacity:1;"
       xml:space="preserve"><tspan
         style="stroke-width:2.06423092;fill:#ffffff;stroke:#ffffff;"
         y="57.312"
         x="93.413284"
         id="tspan825"
         sodipodi:role="line">DEV NA ROÇA</tspan></text>
  </g>
</svg>
