<?xml version="1.0" encoding="UTF-8" standalone="no"?>
<!-- Created with Inkscape (http://www.inkscape.org/) -->

<svg
   xmlns:dc="http://purl.org/dc/elements/1.1/"
   xmlns:cc="http://creativecommons.org/ns#"
   xmlns:rdf="http://www.w3.org/1999/02/22-rdf-syntax-ns#"
   xmlns:svg="http://www.w3.org/2000/svg"
   xmlns="http://www.w3.org/2000/svg"
   xmlns:sodipodi="http://sodipodi.sourceforge.net/DTD/sodipodi-0.dtd"
   xmlns:inkscape="http://www.inkscape.org/namespaces/inkscape"
   width="210mm"
   height="297mm"
   viewBox="0 0 210 297"
   version="1.1"
   id="svg8"
   inkscape:version="0.92.3 (2405546, 2018-03-11)"
   sodipodi:docname="logo.svg">
  <defs
     id="defs2" />
  <sodipodi:namedview
     id="base"
     pagecolor="#ffffff"
     bordercolor="#666666"
     borderopacity="1.0"
     inkscape:pageopacity="0.0"
     inkscape:pageshadow="2"
     inkscape:zoom="0.70710678"
     inkscape:cx="391.74909"
     inkscape:cy="635.27069"
     inkscape:document-units="mm"
     inkscape:current-layer="layer1"
     showgrid="false"
     inkscape:window-width="1360"
     inkscape:window-height="711"
     inkscape:window-x="1366"
     inkscape:window-y="0"
     inkscape:window-maximized="1" />
  <metadata
     id="metadata5">
    <rdf:RDF>
      <cc:Work
         rdf:about="">
        <dc:format>image/svg+xml</dc:format>
        <dc:type
           rdf:resource="http://purl.org/dc/dcmitype/StillImage" />
        <dc:title></dc:title>
      </cc:Work>
    </rdf:RDF>
  </metadata>
  <g
     inkscape:label="Camada 1"
     inkscape:groupmode="layer"
     id="layer1">
    <path
       style="fill:#6693bc;fill-opacity:1;stroke:none;stroke-width:11.72728348;stroke-miterlimit:4;stroke-dasharray:none;stroke-opacity:1"
       d="M 332.9707 427.41406 C 324.56407 427.41406 316.0001 429.1024 307.93359 432.22656 L 307.93359 437.02539 L 322.83398 451.92578 L 322.83398 470.60547 L 317.42773 477.19336 L 317.42773 487.79688 C 321.06595 489.48276 324.14062 493.24102 324.14062 497.56641 C 324.14063 503.44212 319.29174 508.29297 313.41602 508.29297 C 307.54031 508.29297 302.69727 503.44212 302.69727 497.56641 C 302.69727 493.23231 305.78223 489.46823 309.42773 487.78711 L 309.42773 473.67773 L 314.83398 467.0918 L 314.83398 455.44141 L 299.93359 440.54102 L 299.93359 435.88477 C 282.81421 444.98803 269.30297 460.86536 266.75195 480.73438 C 199.92889 486.21319 225.66041 581.13621 269.52344 578.62305 C 313.38646 576.10985 449.62131 579.37102 469.75977 578.62305 C 521.56629 576.69889 517.50904 490.43362 460.7168 496.5918 C 461.15766 496.02497 460.93766 494.41231 460.08984 492.17188 L 427.03906 492.17188 L 412.13867 501.66602 L 386.26562 501.66602 C 384.57971 505.30424 380.82148 508.37891 376.49609 508.37891 C 370.62038 508.37891 365.76953 503.53002 365.76953 497.6543 C 365.76953 491.77859 370.62038 486.93555 376.49609 486.93555 C 380.83019 486.93555 384.59427 490.02051 386.27539 493.66602 L 408.62305 493.66602 L 423.52344 484.17188 L 455.78906 484.17188 C 452.79066 479.69908 448.49536 474.66962 442.86133 470.17188 L 423.03906 470.17188 L 408.13867 479.66602 L 398.26562 479.66602 C 396.57972 483.30424 392.82148 486.37891 388.49609 486.37891 C 382.62038 486.37891 377.76953 481.53002 377.76953 475.6543 C 377.76953 469.77859 382.62038 464.93555 388.49609 464.93555 C 392.83019 464.93555 396.59427 468.02051 398.27539 471.66602 L 404.62305 471.66602 L 419.52344 462.17188 L 429.71094 462.17188 C 418.96856 457.42325 405.44712 455.35492 389.11719 459.32812 C 384.19396 443.34231 369.72915 435.07674 356.14062 431.00586 L 356.14062 440.53906 L 341.24023 455.43945 L 341.24023 467.08984 L 346.64648 473.67578 L 346.64648 487.78711 C 350.29198 489.46823 353.37695 493.23231 353.37695 497.56641 C 353.37695 503.44212 348.53391 508.29297 342.6582 508.29297 C 336.78248 508.29297 331.93359 503.44212 331.93359 497.56641 C 331.93359 493.24102 335.00826 489.48277 338.64648 487.79688 L 338.64648 477.19141 L 333.24023 470.60352 L 333.24023 451.92383 L 348.14062 437.02344 L 348.14062 429.05273 C 342.04418 427.8527 336.59666 427.41406 332.9707 427.41406 z M 338.64648 487.79688 L 338.64648 487.80859 L 338.65039 487.80859 C 338.64972 487.80372 338.64713 487.80174 338.64648 487.79688 z M 346.64648 487.78711 C 346.64648 487.79005 346.6159 487.80536 346.61523 487.80859 L 346.64648 487.80859 L 346.64648 487.78711 z M 398.27539 471.66602 L 398.25391 471.66602 L 398.25391 471.68164 C 398.25974 471.67973 398.27042 471.66602 398.27539 471.66602 z M 398.26562 479.66602 C 398.26114 479.66542 398.25838 479.66272 398.25391 479.66211 L 398.25391 479.66602 L 398.26562 479.66602 z M 386.27539 493.66602 L 386.25391 493.66602 L 386.25391 493.68164 C 386.25974 493.67973 386.27042 493.66602 386.27539 493.66602 z M 386.26562 501.66602 C 386.26113 501.66542 386.25838 501.66272 386.25391 501.66211 L 386.25391 501.66602 L 386.26562 501.66602 z M 309.42773 487.78711 L 309.42773 487.80859 L 309.44336 487.80859 C 309.44145 487.80276 309.42773 487.79208 309.42773 487.78711 z M 388.49609 472.58398 C 386.75233 472.58398 385.41797 473.91053 385.41797 475.6543 C 385.41797 477.39807 386.75233 478.73242 388.49609 478.73242 C 390.23986 478.73242 391.56641 477.39807 391.56641 475.6543 C 391.56641 473.91053 390.23986 472.58398 388.49609 472.58398 z M 317.42773 487.79883 C 317.42726 487.80245 317.42627 487.80498 317.42578 487.80859 L 317.42773 487.80859 L 317.42773 487.79883 z M 313.41602 494.49609 C 311.67225 494.49609 310.3457 495.82264 310.3457 497.56641 C 310.3457 499.31017 311.67225 500.64453 313.41602 500.64453 C 315.15979 500.64453 316.49414 499.31017 316.49414 497.56641 C 316.49414 495.82264 315.15979 494.49609 313.41602 494.49609 z M 342.6582 494.49609 C 340.91443 494.49609 339.58008 495.82264 339.58008 497.56641 C 339.58008 499.31017 340.91443 500.64453 342.6582 500.64453 C 344.40197 500.64453 345.72852 499.31017 345.72852 497.56641 C 345.72852 495.82264 344.40197 494.4961 342.6582 494.49609 z M 376.49609 494.58398 C 374.75233 494.58398 373.41797 495.91053 373.41797 497.6543 C 373.41797 499.39807 374.75233 500.73242 376.49609 500.73242 C 378.23986 500.73242 379.56641 499.39807 379.56641 497.6543 C 379.56641 495.91053 378.23986 494.58398 376.49609 494.58398 z "
       transform="scale(0.26458333)"
       id="path834"
       inkscape:export-filename="/home/mckatoo/projetos/formataja-web/src/logo.svg.png"
       inkscape:export-xdpi="57"
       inkscape:export-ydpi="57" />
    <path
       inkscape:connector-curvature="0"
       id="path1147"
       style="font-style:normal;font-variant:normal;font-weight:bold;font-stretch:normal;font-size:11.79714966px;line-height:1.25;font-family:sans-serif;-inkscape-font-specification:'sans-serif, Bold';font-variant-ligatures:normal;font-variant-caps:normal;font-variant-numeric:normal;font-feature-settings:normal;text-align:start;letter-spacing:0px;word-spacing:0px;writing-mode:lr-tb;text-anchor:start;fill:#ffffff;fill-opacity:1;stroke:none;stroke-width:0.29492873"
       d="m 63.299794,137.32092 h 5.660586 v 1.77231 h -3.563064 v 1.69314 h 3.350588 v 1.77233 h -3.350588 v 3.85524 h -2.097522 z" />
    <path
       inkscape:connector-curvature="0"
       id="path1149"
       style="font-style:normal;font-variant:normal;font-weight:bold;font-stretch:normal;font-size:11.79714966px;line-height:1.25;font-family:sans-serif;-inkscape-font-specification:'sans-serif, Bold';font-variant-ligatures:normal;font-variant-caps:normal;font-variant-numeric:normal;font-feature-settings:normal;text-align:start;letter-spacing:0px;word-spacing:0px;writing-mode:lr-tb;text-anchor:start;fill:#ffffff;fill-opacity:1;stroke:none;stroke-width:0.29492873"
       d="m 73.286179,140.98736 q -0.648325,0 -0.991555,0.52378 -0.337784,0.51769 -0.337784,1.49824 0,0.98057 0.337784,1.50434 0.34323,0.51769 0.991555,0.51769 0.63743,0 0.975212,-0.51769 0.337783,-0.52377 0.337783,-1.50434 0,-0.98055 -0.337783,-1.49824 -0.337782,-0.52378 -0.975212,-0.52378 z m 0,-1.55915 q 1.574504,0 2.457098,0.95011 0.888042,0.9501 0.888042,2.63106 0,1.68096 -0.888042,2.63107 -0.882594,0.95012 -2.457098,0.95012 -1.579952,0 -2.473441,-0.95012 -0.888042,-0.95011 -0.888042,-2.63107 0,-1.68096 0.888042,-2.63106 0.893489,-0.95011 2.473441,-0.95011 z" />
    <path
       inkscape:connector-curvature="0"
       id="path1151"
       style="font-style:normal;font-variant:normal;font-weight:bold;font-stretch:normal;font-size:11.79714966px;line-height:1.25;font-family:sans-serif;-inkscape-font-specification:'sans-serif, Bold';font-variant-ligatures:normal;font-variant-caps:normal;font-variant-numeric:normal;font-feature-settings:normal;text-align:start;letter-spacing:0px;word-spacing:0px;writing-mode:lr-tb;text-anchor:start;fill:#ffffff;fill-opacity:1;stroke:none;stroke-width:0.29492873"
       d="m 82.586103,141.45024 q -0.256061,-0.134 -0.512122,-0.1949 -0.250613,-0.067 -0.506675,-0.067 -0.751839,0 -1.160446,0.54204 -0.403161,0.53596 -0.403161,1.54089 v 3.14266 h -1.950424 v -6.82129 h 1.950424 v 1.12064 q 0.37592,-0.66995 0.860801,-0.97447 0.490331,-0.31061 1.171344,-0.31061 0.09807,0 0.212476,0.0122 0.114411,0.006 0.332335,0.0366 z" />
    <path
       inkscape:connector-curvature="0"
       id="path1153"
       style="font-style:normal;font-variant:normal;font-weight:bold;font-stretch:normal;font-size:11.79714966px;line-height:1.25;font-family:sans-serif;-inkscape-font-specification:'sans-serif, Bold';font-variant-ligatures:normal;font-variant-caps:normal;font-variant-numeric:normal;font-feature-settings:normal;text-align:start;letter-spacing:0px;word-spacing:0px;writing-mode:lr-tb;text-anchor:start;fill:#ffffff;fill-opacity:1;stroke:none;stroke-width:0.29492873"
       d="m 89.221901,140.72547 q 0.370473,-0.6334 0.877146,-0.96229 0.512123,-0.33497 1.122311,-0.33497 1.051485,0 1.601744,0.72476 0.55026,0.72476 0.55026,2.10729 v 4.15368 h -1.96132 v -3.55682 q 0.0055,-0.0792 0.0055,-0.16443 0.0055,-0.0853 0.0055,-0.24363 0,-0.72476 -0.190683,-1.04755 -0.190683,-0.32888 -0.615636,-0.32888 -0.555707,0 -0.860802,0.5116 -0.299646,0.51159 -0.310542,1.47997 v 3.34974 h -1.96132 v -3.55682 q 0,-1.13282 -0.174339,-1.45561 -0.17434,-0.32888 -0.621085,-0.32888 -0.561155,0 -0.86625,0.51769 -0.305093,0.51159 -0.305093,1.46779 v 3.35583 h -1.96132 v -6.82129 h 1.96132 v 0.99883 q 0.359575,-0.57859 0.822664,-0.87093 0.468537,-0.29234 1.029693,-0.29234 0.631981,0 1.116862,0.34106 0.484882,0.34107 0.735495,0.9562 z" />
    <path
       inkscape:connector-curvature="0"
       id="path1155"
       style="font-style:normal;font-variant:normal;font-weight:bold;font-stretch:normal;font-size:11.79714966px;line-height:1.25;font-family:sans-serif;-inkscape-font-specification:'sans-serif, Bold';font-variant-ligatures:normal;font-variant-caps:normal;font-variant-numeric:normal;font-feature-settings:normal;text-align:start;letter-spacing:0px;word-spacing:0px;writing-mode:lr-tb;text-anchor:start;fill:#ffffff;fill-opacity:1;stroke:none;stroke-width:0.29492873"
       d="m 97.938878,143.34436 q -0.610191,0 -0.920735,0.23143 -0.305096,0.23145 -0.305096,0.68214 0,0.41414 0.24517,0.65168 0.250609,0.23143 0.691909,0.23143 0.550256,0 0.926183,-0.43852 0.375917,-0.44459 0.375917,-1.10846 v -0.2497 z m 2.980122,-0.82221 v 3.89179 h -1.966774 v -1.01101 q -0.39227,0.62122 -0.882591,0.90747 -0.490331,0.28017 -1.193144,0.28017 -0.947965,0 -1.541813,-0.61514 -0.588391,-0.62122 -0.588391,-1.60787 0,-1.19982 0.735491,-1.76014 0.740939,-0.56032 2.320896,-0.56032 h 1.149552 v -0.17054 q 0,-0.51769 -0.365022,-0.75521 -0.365031,-0.24362 -1.138656,-0.24362 -0.626535,0 -1.165896,0.14009 -0.53936,0.14007 -1.002452,0.42023 v -1.66268 q 0.626535,-0.17054 1.258508,-0.2558 0.631983,-0.0914 1.263966,-0.0914 1.650778,0 2.380826,0.73085 0.7355,0.72477 0.7355,2.3631 z" />
    <path
       inkscape:connector-curvature="0"
       id="path1157"
       style="font-style:normal;font-variant:normal;font-weight:bold;font-stretch:normal;font-size:11.79714966px;line-height:1.25;font-family:sans-serif;-inkscape-font-specification:'sans-serif, Bold';font-variant-ligatures:normal;font-variant-caps:normal;font-variant-numeric:normal;font-feature-settings:normal;text-align:start;letter-spacing:0px;word-spacing:0px;writing-mode:lr-tb;text-anchor:start;fill:#ffffff;fill-opacity:1;stroke:none;stroke-width:0.29492873"
       d="m 104.87432,137.6559 v 1.93675 h 2.01036 v 1.55915 h -2.01036 v 2.89296 q 0,0.47505 0.16889,0.64558 0.1689,0.16445 0.67012,0.16445 h 1.00246 v 1.55915 h -1.67258 q -1.15499,0 -1.63988,-0.53596 -0.47943,-0.54205 -0.47943,-1.83322 v -2.89296 h -0.96977 v -1.55915 h 0.96977 v -1.93675 z" />
    <path
       inkscape:connector-curvature="0"
       id="path1159"
       style="font-style:normal;font-variant:normal;font-weight:bold;font-stretch:normal;font-size:11.79714966px;line-height:1.25;font-family:sans-serif;-inkscape-font-specification:'sans-serif, Bold';font-variant-ligatures:normal;font-variant-caps:normal;font-variant-numeric:normal;font-feature-settings:normal;text-align:start;letter-spacing:0px;word-spacing:0px;writing-mode:lr-tb;text-anchor:start;fill:#ffffff;fill-opacity:1;stroke:none;stroke-width:0.29492873"
       d="m 110.81821,143.34436 q -0.61018,0 -0.92073,0.23143 -0.30509,0.23145 -0.30509,0.68214 0,0.41414 0.24516,0.65168 0.25061,0.23143 0.69191,0.23143 0.55026,0 0.92618,-0.43852 0.37592,-0.44459 0.37592,-1.10846 v -0.2497 z m 2.98011,-0.82221 v 3.89179 h -1.96676 v -1.01101 q -0.39227,0.62122 -0.8826,0.90747 -0.49033,0.28017 -1.19313,0.28017 -0.94797,0 -1.54181,-0.61514 -0.5884,-0.62122 -0.5884,-1.60787 0,-1.19982 0.7355,-1.76014 0.74094,-0.56032 2.32089,-0.56032 h 1.14955 v -0.17054 q 0,-0.51769 -0.36503,-0.75521 -0.36502,-0.24362 -1.13865,-0.24362 -0.62653,0 -1.1659,0.14009 -0.53936,0.14007 -1.00245,0.42023 v -1.66268 q 0.62653,-0.17054 1.25852,-0.2558 0.63198,-0.0914 1.26396,-0.0914 1.65077,0 2.38082,0.73085 0.73549,0.72477 0.73549,2.3631 z" />
    <path
       inkscape:connector-curvature="0"
       id="path1161"
       style="font-style:normal;font-variant:normal;font-weight:bold;font-stretch:normal;font-size:11.79714966px;line-height:1.25;font-family:sans-serif;-inkscape-font-specification:'sans-serif, Bold';font-variant-ligatures:normal;font-variant-caps:normal;font-variant-numeric:normal;font-feature-settings:normal;text-align:start;letter-spacing:0px;word-spacing:0px;writing-mode:lr-tb;text-anchor:start;fill:#ffffff;fill-opacity:1;stroke:none;stroke-width:0.29492873"
       d="m 119.58967,137.32092 h 2.09751 v 8.20991 q 0,1.69923 -0.82811,2.5397 -0.82266,0.84049 -2.49523,0.84049 h -0.42495 v -1.77232 h 0.32689 q 0.65377,0 0.98611,-0.40806 0.33778,-0.40806 0.33778,-1.19981 z" />
    <path
       sodipodi:type="inkscape:offset"
       inkscape:radius="0"
       inkscape:original="M 127.26562 134.32031 L 125.73047 136.61133 L 126.79688 136.61133 L 128.80859 134.32031 L 127.26562 134.32031 z "
       style="font-style:normal;font-variant:normal;font-weight:bold;font-stretch:normal;font-size:11.79714966px;line-height:1.25;font-family:sans-serif;-inkscape-font-specification:'sans-serif, Bold';font-variant-ligatures:normal;font-variant-caps:normal;font-variant-numeric:normal;font-feature-settings:normal;text-align:start;letter-spacing:0px;word-spacing:0px;writing-mode:lr-tb;text-anchor:start;fill:#ff2a2a;fill-opacity:1;stroke:#ff2a2a;stroke-width:0.29492873"
       id="path1163"
       d="m 127.26562,134.32031 -1.53515,2.29102 h 1.06641 l 2.01171,-2.29102 z"
       transform="translate(0,2.1166667)" />
    <path
       d="m 49.539062,165.04688 c -0.852926,-10e-6 -1.676582,0.17961 -2.472656,0.5371 -0.791326,0.35749 -1.484978,0.86178 -2.082031,1.51368 -0.597053,0.65715 -1.056686,1.41967 -1.378906,2.28711 -0.322214,0.86743 -0.484375,1.7795 -0.484375,2.73632 0,0.99362 0.159082,1.92358 0.476562,2.79102 0.31748,0.86219 0.780192,1.62214 1.386719,2.2793 0.606527,0.65714 1.297099,1.15632 2.074219,1.49804 0.777106,0.34698 1.603842,0.52149 2.480468,0.52149 0.720254,0 1.428441,-0.13679 2.125,-0.41016 0.701294,-0.26812 1.349087,-0.65801 1.941407,-1.16797 l -0.759766,-1.27734 c -0.42172,0.42057 -0.932237,0.75486 -1.529297,1.00195 -0.597046,0.24709 -1.193969,0.3711 -1.791015,0.3711 -0.696567,0 -1.352744,-0.13679 -1.96875,-0.41016 -0.611267,-0.26812 -1.153107,-0.66058 -1.626953,-1.17578 -0.478587,-0.52573 -0.845683,-1.13101 -1.101563,-1.81446 -0.25114,-0.68869 -0.376953,-1.4237 -0.376953,-2.20703 0,-0.95156 0.193478,-1.83552 0.582031,-2.65039 0.393293,-0.82012 0.941272,-1.48674 1.642578,-2.00195 0.42646,-0.31017 0.890292,-0.54541 1.392578,-0.70313 0.50228,-0.16297 1.028465,-0.24414 1.578125,-0.24414 0.786594,0 1.516587,0.17452 2.189454,0.52149 0.677606,0.34697 1.241246,0.84103 1.691406,1.48242 0.279573,0.38378 0.487586,0.8069 0.625,1.26953 0.13742,0.45738 0.207031,0.94889 0.207031,1.47461 0,0.82538 -0.169419,1.50417 -0.505859,2.03516 -0.336427,0.52572 -0.797193,0.83762 -1.384766,0.9375 v -5.46485 h -1.486328 v 1.03321 c -0.142153,-0.37326 -0.371973,-0.66471 -0.689453,-0.875 -0.31274,-0.21029 -0.679836,-0.31641 -1.101563,-0.31641 -0.810286,0 -1.470668,0.32918 -1.982422,0.98633 -0.511766,0.65715 -0.767578,1.51105 -0.767578,2.5625 0,1.05145 0.252739,1.90535 0.759766,2.5625 0.511753,0.65189 1.175208,0.97851 1.990234,0.97851 0.421727,0 0.788823,-0.10161 1.101563,-0.30664 0.31748,-0.21029 0.5473,-0.50368 0.689453,-0.87695 v 1.21484 h 0.277344 c 1.407333,0 2.497151,-0.39501 3.269531,-1.18359 0.772373,-0.78858 1.158203,-1.89365 1.158203,-3.31836 0,-0.66241 -0.09254,-1.29326 -0.277344,-1.89258 -0.180066,-0.60458 -0.447347,-1.16447 -0.802734,-1.67968 -0.582833,-0.84642 -1.308635,-1.49456 -2.175781,-1.94141 -0.867147,-0.45213 -1.831152,-0.67773 -2.892579,-0.67773 z m -0.09961,5.03906 c 0.426467,0 0.766438,0.18728 1.017578,0.56054 0.25588,0.36801 0.382813,0.86974 0.382813,1.50586 0,0.64139 -0.125813,1.15078 -0.376953,1.5293 -0.25114,0.37325 -0.58608,0.56055 -1.007813,0.56055 -0.42646,0 -0.766431,-0.1873 -1.017578,-0.56055 -0.246393,-0.37327 -0.369141,-0.88266 -0.369141,-1.5293 0,-0.63612 0.122748,-1.13785 0.369141,-1.50586 0.251147,-0.37326 0.584966,-0.56054 1.001953,-0.56054 z"
       id="path1124"
       style="font-style:normal;font-variant:normal;font-weight:bold;font-stretch:normal;font-size:15.3327446px;line-height:1.25;font-family:sans-serif;-inkscape-font-specification:'sans-serif, Bold';font-variant-ligatures:normal;font-variant-caps:normal;font-variant-numeric:normal;font-feature-settings:normal;text-align:start;letter-spacing:0px;word-spacing:0px;writing-mode:lr-tb;text-anchor:start;fill:#ff2a2a;fill-opacity:1;stroke:#ff2a2a;stroke-width:0.59616381;stroke-miterlimit:4;stroke-dasharray:none;stroke-opacity:1"
       inkscape:original="M 49.539062 165.04688 C 48.686136 165.04687 47.86248 165.22649 47.066406 165.58398 C 46.27508 165.94147 45.581428 166.44576 44.984375 167.09766 C 44.387322 167.75481 43.927689 168.51733 43.605469 169.38477 C 43.283255 170.2522 43.121094 171.16427 43.121094 172.12109 C 43.121094 173.11471 43.280176 174.04467 43.597656 174.91211 C 43.915136 175.7743 44.377848 176.53425 44.984375 177.19141 C 45.590902 177.84855 46.281474 178.34773 47.058594 178.68945 C 47.8357 179.03643 48.662436 179.21094 49.539062 179.21094 C 50.259316 179.21094 50.967503 179.07415 51.664062 178.80078 C 52.365356 178.53266 53.013149 178.14277 53.605469 177.63281 L 52.845703 176.35547 C 52.423983 176.77604 51.913466 177.11033 51.316406 177.35742 C 50.71936 177.60451 50.122437 177.72852 49.525391 177.72852 C 48.828824 177.72852 48.172647 177.59173 47.556641 177.31836 C 46.945374 177.05024 46.403534 176.65778 45.929688 176.14258 C 45.451101 175.61685 45.084005 175.01157 44.828125 174.32812 C 44.576985 173.63943 44.451172 172.90442 44.451172 172.12109 C 44.451172 171.16953 44.64465 170.28557 45.033203 169.4707 C 45.426496 168.65058 45.974475 167.98396 46.675781 167.46875 C 47.102241 167.15858 47.566073 166.92334 48.068359 166.76562 C 48.570639 166.60265 49.096824 166.52148 49.646484 166.52148 C 50.433078 166.52148 51.163071 166.696 51.835938 167.04297 C 52.513544 167.38994 53.077184 167.884 53.527344 168.52539 C 53.806917 168.90917 54.01493 169.33229 54.152344 169.79492 C 54.289764 170.2523 54.359375 170.74381 54.359375 171.26953 C 54.359375 172.09491 54.189956 172.7737 53.853516 173.30469 C 53.517089 173.83041 53.056323 174.14231 52.46875 174.24219 L 52.46875 168.77734 L 50.982422 168.77734 L 50.982422 169.81055 C 50.840269 169.43729 50.610449 169.14584 50.292969 168.93555 C 49.980229 168.72526 49.613133 168.61914 49.191406 168.61914 C 48.38112 168.61914 47.720738 168.94832 47.208984 169.60547 C 46.697218 170.26262 46.441406 171.11652 46.441406 172.16797 C 46.441406 173.21942 46.694145 174.07332 47.201172 174.73047 C 47.712925 175.38236 48.37638 175.70898 49.191406 175.70898 C 49.613133 175.70898 49.980229 175.60737 50.292969 175.40234 C 50.610449 175.19205 50.840269 174.89866 50.982422 174.52539 L 50.982422 175.74023 L 51.259766 175.74023 C 52.667099 175.74023 53.756917 175.34522 54.529297 174.55664 C 55.30167 173.76806 55.6875 172.66299 55.6875 171.23828 C 55.6875 170.57587 55.594956 169.94502 55.410156 169.3457 C 55.23009 168.74112 54.962809 168.18123 54.607422 167.66602 C 54.024589 166.8196 53.298787 166.17146 52.431641 165.72461 C 51.564494 165.27248 50.600489 165.04688 49.539062 165.04688 z M 49.439453 170.08594 C 49.86592 170.08594 50.205891 170.27322 50.457031 170.64648 C 50.712911 171.01449 50.839844 171.51622 50.839844 172.15234 C 50.839844 172.79373 50.714031 173.30312 50.462891 173.68164 C 50.211751 174.05489 49.876811 174.24219 49.455078 174.24219 C 49.028618 174.24219 48.688647 174.05489 48.4375 173.68164 C 48.191107 173.30837 48.068359 172.79898 48.068359 172.15234 C 48.068359 171.51622 48.191107 171.01449 48.4375 170.64648 C 48.688647 170.27322 49.022466 170.08594 49.439453 170.08594 z "
       inkscape:radius="0"
       sodipodi:type="inkscape:offset"
       transform="matrix(0.58070338,0,0,0.55522935,97.906127,48.142176)" />
    <g
       id="g1191"
       transform="matrix(1,0,0,-1,12.985889,213.02891)" />
    <g
       transform="rotate(-180,80.300118,106.51445)"
       id="g1200" />
    <g
       transform="rotate(-90,113.26095,91.323263)"
       id="g1204" />
    <g
       id="g1208"
       transform="rotate(-90,114.58385,95.821174)" />
  </g>
</svg>
